<?xml version="1.0" encoding="utf-8"?>
<!-- Generator: Adobe Illustrator 22.1.0, SVG Export Plug-In . SVG Version: 6.00 Build 0)  -->
<svg version="1.1" id="圖層_1" xmlns="http://www.w3.org/2000/svg" xmlns:xlink="http://www.w3.org/1999/xlink" x="0px" y="0px"
	 viewBox="0 0 24 24" style="enable-background:new 0 0 24 24;" xml:space="preserve">
<style type="text/css">
	.st0{fill:#BFDBDC;}
	.st1{fill:#FFFFFF;}
</style>
<path class="st0" d="M12.2,24h-0.3C5.3,24,0,18.7,0,12.2v-0.3C0,5.3,5.3,0,11.8,0h0.3C18.7,0,24,5.3,24,11.8v0.3
	C24,18.7,18.7,24,12.2,24z"/>
<path class="st1" d="M19.9,13l-3.8,1l-2.7-1.5l2.7-1.5l3.8,1l0.4-1.3L17.8,10L20,8.8l-0.7-1.2l-2.2,1.2l0.7-2.4L16.5,6l-1,3.8
	l-2.8,1.6V8.6l2.8-2.8l-1-1l-1.8,1.8V4.2h-1.4v2.5L9.5,4.9l-1,1l2.8,2.8v2.7L8.5,9.8L7.5,6L6.2,6.4l0.7,2.4L4.7,7.6L4,8.8L6.2,10
	l-2.4,0.7L4.1,12l3.8-1l2.7,1.5L7.9,14l-3.8-1l-0.4,1.3L6.2,15L4,16.2l0.7,1.2l2.2-1.2l-0.7,2.4L7.5,19l1-3.8l2.8-1.6v2.7l-2.8,2.8
	l1,1l1.8-1.8v2.5h1.4v-2.5l1.8,1.8l1-1l-2.8-2.8v-2.7l2.8,1.6l1,3.8l1.3-0.4l-0.7-2.4l2.2,1.2l0.7-1.2L17.8,15l2.4-0.7L19.9,13z"/>
</svg>
