<?xml version="1.0" encoding="utf-8"?>
<!-- Generator: Adobe Illustrator 22.1.0, SVG Export Plug-In . SVG Version: 6.00 Build 0)  -->
<svg version="1.1" id="分離模式" xmlns="http://www.w3.org/2000/svg" xmlns:xlink="http://www.w3.org/1999/xlink" x="0px"
	 y="0px" viewBox="0 0 1417.3 1417.3" style="enable-background:new 0 0 1417.3 1417.3;" xml:space="preserve">
<style type="text/css">
	.st0{fill:#FFFFFF;}
	.st1{fill:none;stroke:#992323;stroke-width:30;stroke-miterlimit:10;}
	.st2{fill:#992323;}
</style>
<circle class="st0" cx="708.7" cy="708.7" r="708.7"/>
<circle class="st1" cx="708.7" cy="708.7" r="654.3"/>
<path class="st2" d="M715.6,166.9c-16.7,9.7-24.9,31.4-13.1,51.9c9.6,16.6,36.2,24.7-0.9,46.1L393.3,442.5
	c-24.2,14-37.3,40.5-37.3,69.3c0,70,73.8,122.4,129.4,90.3l301-173.4c38.4-22.2,48.9-75.9,23.5-119.9c-5.6-9.8-12.6-18.3-20.5-25.3
	c-11.4-10.2-16.1-26-12.3-40.9c3.7-14.2,3.9-29.5-1.3-44.1C763,163.1,735.4,155.5,715.6,166.9z M753.3,383.8L463.2,550.9
	c-14.6,8.4-33.7,4-45.3-16.2c-11.6-20.2-6-38.9,8.6-47.3l290.1-167.1c14.6-8.4,33.6-4,45.3,16.2
	C773.5,356.6,767.9,375.4,753.3,383.8z M756,205.6c5.3,14.7,2.6,30.5-3.3,43.5c-3.8-10.4-11.9-21-24.6-32
	c-14.8-12.9-11.6-26.4-2.1-31.9C734.6,180.3,747.8,182.9,756,205.6z M498.6,643.5l71.2,123.4c92.7,160.5-204,208.2-103,383
	c38.7,67,124.4,90,191.4,51.3l333.2-192.4c45-25.9,70.1-73,70.1-121.5c0-23.8-6-47.8-18.8-69.9l-211.4-366
	C831.2,451.5,498.6,643.5,498.6,643.5z M959.7,954.2L894.2,992l0-0.1c-3.4-9.3-6.1-18.8-8.2-29.2l-41.3,8.4
	c4.1,19.9,9.3,33.4,12.5,42.3l-127,73.3c-8.9-8.6-32.4-23-49.9-31.3l-16.3,34.2c10.7,5.1,21,11,30.6,17.5l-68.2,39.4
	c-36.8,21.2-83.9,8.6-105.2-28.2c-11-19-13.6-32.4-12.6-43.2c12.9-6.3,26.8-8.3,53.6-8.5l-0.3-37.9c-10.5,0.1-21,0.8-31.4,2.2
	c9.7-12.4,21.6-25.3,34-38.6c51.1-55.1,128.5-138.3,59.8-257.2l-39.7-68.7l223.4-128.9l115.1,199.3c-11.4,10.1-21.9,21.2-31.2,33.2
	l33.2,25.9c7.9-10.1,14.9-17.2,19.6-21.7l43.2,74.8C1009.1,885.8,996.5,933,959.7,954.2z M842.6,885.3l41.6,6.3
	c-1.9,12.5-2.6,25.2-2.2,37.7l-42.1,1.5C839.4,915.6,840.3,900.4,842.6,885.3z M869.8,804l36.9,20.1c-6,11-11,22.6-14.9,34.8l-40-13
	C856.6,831.5,862.6,817.3,869.8,804z M644.1,1041.2l-11.2,36.1c-12.1-3.7-24.5-6.5-36.9-8.3l5.3-37.5
	C615.7,1033.6,630.1,1036.8,644.1,1041.2z"/>
</svg>
