<?xml version="1.0" encoding="utf-8"?>
<!-- Generator: Adobe Illustrator 22.1.0, SVG Export Plug-In . SVG Version: 6.00 Build 0)  -->
<svg version="1.1" id="分離模式" xmlns="http://www.w3.org/2000/svg" xmlns:xlink="http://www.w3.org/1999/xlink" x="0px"
	 y="0px" viewBox="0 0 1417.3 1417.3" style="enable-background:new 0 0 1417.3 1417.3;" xml:space="preserve">
<style type="text/css">
	.st0{fill:#F0E4CD;}
	.st1{fill:#FFFFFF;}
	.st2{fill:#992323;}
</style>
<circle class="st0" cx="708.7" cy="708.3" r="708.3"/>
<circle class="st1" cx="708.7" cy="708.3" r="596.3"/>
<path class="st2" d="M853.4,873.7c18.9,0,34.3,18.4,34.3,40.4c0,22-15.4,39.9-34.3,39.9H352.9c-18.9,0-34.3-17.9-34.3-39.9
	c0-22,15.4-40.4,34.3-40.4H853.4z M853.4,793.9H352.9c-63.3,0-114.5,53.8-114.5,120.2c0,66.4,51.3,120.2,114.5,120.2h500.4
	c63.3,0,114.5-53.8,114.5-120.2C968,847.7,916.7,793.9,853.4,793.9z M1101.3,532.5c22.2,0,40.1,18,40.1,40.1
	c0,22.1-18,40.1-40.1,40.1c-22.2,0-40.1-18-40.1-40.1C1061.2,550.5,1079.2,532.5,1101.3,532.5z M1101.3,472.3
	c-55.3,0-100.3,45-100.3,100.3c0,55.3,45,100.3,100.3,100.3c55.3,0,100.3-45,100.3-100.3C1201.6,517.3,1156.7,472.3,1101.3,472.3z
	 M963.5,546.1c5.3-27.1,18.3-51.3,36.7-70.5c-133.3-97.3-239.1-163.8-321-163.8c-163.6,0-280.5,184.7-344.8,441.5h535.4
	c-20.8-42.8-35.1-117.2-40.5-163c-26.9-4.6-75.7,0.4-99.7,8C786.2,544.6,900.1,540.6,963.5,546.1z"/>
</svg>
