<?xml version="1.0" encoding="utf-8"?>
<!-- Generator: Adobe Illustrator 22.1.0, SVG Export Plug-In . SVG Version: 6.00 Build 0)  -->
<svg version="1.1" id="分離模式" xmlns="http://www.w3.org/2000/svg" xmlns:xlink="http://www.w3.org/1999/xlink" x="0px"
	 y="0px" viewBox="0 0 1417.3 1417.3" style="enable-background:new 0 0 1417.3 1417.3;" xml:space="preserve">
<style type="text/css">
	.st0{fill:#FFFFFF;}
	.st1{fill:none;stroke:#992323;stroke-width:30;stroke-miterlimit:10;}
	.st2{fill:#992323;}
</style>
<circle class="st0" cx="708.7" cy="708.7" r="708.7"/>
<circle class="st1" cx="708.7" cy="708.7" r="654.3"/>
<path class="st2" d="M663.8,1143.2H301.7V708.7h362.1V1143.2z M663.8,491.5H265.5v144.8h398.3V491.5z M736.2,1143.2h362.1V708.7
	H736.2V1143.2z M736.2,491.5v144.8h398.3V491.5H736.2z M894.4,274.2c-106.7,0-169.1,125.9-194.4,181h193.5
	C1020,455.3,1021.4,274.2,894.4,274.2z M865.6,405.3h-74c26.8-40.6,52.1-71.2,84.8-71.2C918.9,334.1,920.9,405.3,865.6,405.3z
	 M506.5,455.3H700c-25.3-55.1-87.7-181-194.4-181C378.7,274.2,380,455.3,506.5,455.3z M523.6,334.1c32.7,0,58,30.6,84.8,71.2h-74
	C479.2,405.3,481.2,334.1,523.6,334.1z"/>
</svg>
