<?xml version="1.0" encoding="utf-8"?>
<!-- Generator: Adobe Illustrator 22.1.0, SVG Export Plug-In . SVG Version: 6.00 Build 0)  -->
<svg version="1.1" id="圖層_1" xmlns="http://www.w3.org/2000/svg" xmlns:xlink="http://www.w3.org/1999/xlink" x="0px" y="0px"
	 viewBox="0 0 76 90" style="enable-background:new 0 0 76 90;" xml:space="preserve">
<style type="text/css">
	.st0{fill:#3F2113;}
	.st1{fill:#5E3914;}
	.st2{fill:#926541;}
	.st3{fill:#DF1C1E;}
	.st4{fill:#F1AD9A;}
	.st5{fill:#FFFFFF;}
</style>
<path class="st0" d="M74.4,26.6c-0.8-0.9-2.2-1-3.1-0.2c-3.4,3-9.3,7.3-11.8,7.5c-1,0.1-1.8,0.2-2.5,0.3c0.1-1.8,0-3.8-0.3-6.2
	l6.2-14c0.5-1.1,0-2.4-1.1-2.9c-1.1-0.5-2.4,0-2.9,1.1l-3.7,8.4C53.6,15.4,51.2,9.1,48,1.9c-0.5-1.1-1.8-1.6-2.9-1.1
	C44,1.3,43.4,2.6,44,3.8c3.4,7.7,5.6,13.7,6.9,18.3l-5.9-3.2c-1.1-0.6-2.4-0.2-3,0.9c-0.6,1.1-0.2,2.4,0.9,3l9.4,5
	c1,6.1,0.1,8.8-0.7,9.8c-0.9,1.2-2.1,1.2-2.2,1.2c-1.2-0.2-2.3,0.7-2.5,1.9c-0.2,1.2,0.7,2.3,1.9,2.5c0.2,0,0.4,0,0.7,0
	c1.5,0,3.9-0.6,5.6-2.9c0.3-0.4,0.6-0.8,0.8-1.3c0.2,0,0.4-0.1,0.6-0.2c0.6-0.2,1.6-0.4,3.1-0.6c0.5,1.3,1.4,2.5,2.4,3.5
	c2.1,2.1,4.8,3.3,7.5,3.3c1,0,2.1-0.2,3.2-0.5c1.2-0.4,1.8-1.6,1.5-2.8c-0.4-1.2-1.6-1.8-2.8-1.5c-1.8,0.6-3.5,0.3-5.1-0.7
	c-1.2-0.8-2-1.9-2.4-2.6c4.4-2.1,9.3-6.3,10.4-7.4C75.2,28.9,75.3,27.5,74.4,26.6z"/>
<path class="st0" d="M1.6,26.6c0.8-0.9,2.2-1,3.1-0.2c3.4,3,9.3,7.3,11.8,7.5c1,0.1,1.8,0.2,2.5,0.3c-0.1-1.8,0-3.8,0.3-6.2l-6.2-14
	c-0.5-1.1,0-2.4,1.1-2.9c1.1-0.5,2.4,0,2.9,1.1l3.7,8.4c1.5-5.4,3.8-11.6,7.1-18.8c0.5-1.1,1.8-1.6,2.9-1.1C32,1.3,32.6,2.6,32,3.8
	c-3.4,7.7-5.6,13.7-6.9,18.3l5.9-3.2c1.1-0.6,2.4-0.2,3,0.9c0.6,1.1,0.2,2.4-0.9,3l-9.4,5c-1,6.1-0.1,8.8,0.7,9.8
	c0.9,1.2,2.1,1.2,2.2,1.2c1.2-0.2,2.3,0.7,2.5,1.9c0.2,1.2-0.7,2.3-1.9,2.5c-0.2,0-0.4,0-0.7,0c-1.5,0-3.9-0.6-5.6-2.9
	c-0.3-0.4-0.6-0.8-0.8-1.3c-0.2,0-0.4-0.1-0.6-0.2c-0.6-0.2-1.6-0.4-3.1-0.6c-0.5,1.3-1.4,2.5-2.4,3.5C12,44,9.3,45.2,6.6,45.2
	c-1,0-2.1-0.2-3.2-0.5c-1.2-0.4-1.8-1.6-1.5-2.8c0.4-1.2,1.6-1.8,2.8-1.5c1.8,0.6,3.5,0.3,5.1-0.7c1.2-0.8,2-1.9,2.4-2.6
	C7.7,35,2.9,30.8,1.7,29.8C0.8,28.9,0.7,27.5,1.6,26.6z"/>
<path class="st1" d="M63.4,44.5c-3.9-0.7-6.3,1.8-7.3,3.2c-4.2-7-10.8-11.6-18.1-11.6c-7.4,0-13.9,4.5-18.1,11.6
	c-1-1.4-3.4-3.9-7.3-3.2c-6.6,1.1-11,7-11,7s4.8,4.8,12.6,3.3c1.2-0.2,2.1-0.7,2.9-1.3c-1.4,3.9-2.2,8.2-2.2,12.7
	C15,83,25.3,89.1,38,89.1c12.7,0,23-6.1,23-22.7c0-4.6-0.8-8.9-2.2-12.7c0.8,0.6,1.8,1.1,2.9,1.3c7.8,1.5,12.6-3.3,12.6-3.3
	S70.1,45.6,63.4,44.5z"/>
<path class="st2" d="M58.9,76.2c0,7.3-9.4,13.2-20.9,13.2C26.4,89.4,17,83.5,17,76.2c0-7.3,9.4-13.2,20.9-13.2
	C49.5,62.9,58.9,68.9,58.9,76.2z"/>
<path class="st3" d="M43.9,69.7c0,3.3-2.6,5.9-5.9,5.9c-3.3,0-5.9-2.6-5.9-5.9s2.6-5.9,5.9-5.9C41.2,63.8,43.9,66.4,43.9,69.7z"/>
<path class="st4" d="M38.7,66.3c-0.2,1.6-1.6,0-2.7,0.9c-1.2,0.9-0.4,2.7-1.6,2.4c-1.4-0.3-0.6-2.8,0.6-3.7
	C36.1,65,38.9,64.6,38.7,66.3z"/>
<path class="st5" d="M32.1,53.9c0,3.2-2.6,5.9-5.9,5.9c-3.2,0-5.9-2.6-5.9-5.9S23,48,26.2,48C29.5,48,32.1,50.7,32.1,53.9z"/>
<path d="M30.6,53.9c0,1.2-1,2.2-2.2,2.2c-1.2,0-2.2-1-2.2-2.2c0-1.2,1-2.2,2.2-2.2C29.6,51.7,30.6,52.7,30.6,53.9z"/>
<path class="st5" d="M42.2,53.9c0,3.2,2.6,5.9,5.9,5.9s5.9-2.6,5.9-5.9S51.3,48,48.1,48S42.2,50.7,42.2,53.9z"/>
<path d="M43.7,53.9c0,1.2,1,2.2,2.2,2.2c1.2,0,2.2-1,2.2-2.2c0-1.2-1-2.2-2.2-2.2C44.7,51.7,43.7,52.7,43.7,53.9z"/>
</svg>
