<?xml version="1.0" encoding="utf-8"?>
<!-- Generator: Adobe Illustrator 22.1.0, SVG Export Plug-In . SVG Version: 6.00 Build 0)  -->
<svg version="1.1" id="圖層_1" xmlns="http://www.w3.org/2000/svg" xmlns:xlink="http://www.w3.org/1999/xlink" x="0px" y="0px"
	 viewBox="0 0 24 24" style="enable-background:new 0 0 24 24;" xml:space="preserve">
<style type="text/css">
	.st0{fill:#02602A;}
	.st1{fill:#FFFFFF;}
</style>
<path class="st0" d="M12.2,24h-0.3C5.3,24,0,18.7,0,12.2v-0.3C0,5.3,5.3,0,11.8,0h0.3C18.7,0,24,5.3,24,11.8v0.3
	C24,18.7,18.7,24,12.2,24z"/>
<path class="st1" d="M15.4,4.4c-1.9,0-3,2.2-3.4,3.2h3.4C17.6,7.6,17.6,4.4,15.4,4.4z M14.9,6.7h-1.3c0.5-0.7,0.9-1.2,1.5-1.2
	C15.8,5.5,15.9,6.7,14.9,6.7z M8.6,7.6H12c-0.4-1-1.5-3.2-3.4-3.2C6.4,4.4,6.4,7.6,8.6,7.6z M8.9,5.5c0.6,0,1,0.5,1.5,1.2H9.1
	C8.1,6.7,8.2,5.5,8.9,5.5z M19.6,8.2H4.4V12h0.7v7.6h13.8V12h0.7V8.2z M11.4,18.3H6.3V12h5.1V18.3z M11.4,10.7H5.7V9.5h5.7V10.7z
	 M12.6,9.5h5.7v1.3h-5.7V9.5z M17.7,18.3h-5.1V12h5.1V18.3z"/>
</svg>
